<svg id="Layer_1" data-name="Layer 1" xmlns="http://www.w3.org/2000/svg" viewBox="0 0 327.9221 63.8596"><defs><style>.cls-1{fill:#fff;}</style></defs><path class="cls-1" d="M30.647,13.4382c.2367,2.13-.5916,3.189-2.68,3.55-3.7451.5916-10.1644,2.4967-14.5662,8.206-6.23,8.076-5.5555,15.8324-4.5971,19.7314a3.1357,3.1357,0,0,1-1.87,3.7983h0a3.1594,3.1594,0,0,1-4.4669-2.0531A32.2861,32.2861,0,0,1,23.865,6.336q1.1748-.36,2.3743-.6306c2.3193-.5147,3.6031.4438,3.8635,2.81ZM59.744,48.7533c2.1773.9526,3.65.3255,4.36-1.9406A32.2977,32.2977,0,0,0,42.8658,6.375q-1.16-.3609-2.3442-.6341a3.1657,3.1657,0,0,0-4.0173,2.84h0a3.1476,3.1476,0,0,0,2.3666,3.52c3.8516,1.1182,10.91,4.4136,14.7911,13.8563,2.7452,6.6619,1.1833,13.1581-.1775,16.7139-.7573,2.0056-.2367,3.23,1.7217,4.0882Zm-49.6683,5.55c-1.911,1.4081-2.1063,3-.497,4.7332a32.2859,32.2859,0,0,0,45.6222,1.8374q.902-.832,1.7388-1.7309a3.1591,3.1591,0,0,0-.4556-4.8929h0a3.1356,3.1356,0,0,0-4.2243.2781c-2.905,2.7925-9.277,7.2594-19.4,5.9282-7.1411-.9763-11.9748-5.5969-14.3887-8.5315-1.3608-1.6625-2.6742-1.8222-4.4018-.5561ZM23.63,30.7378a6.4549,6.4549,0,1,0,6.4548,6.4548h0A6.4608,6.4608,0,0,0,23.63,30.7378Zm19.3585,0a6.4548,6.4548,0,1,0,6.4488,6.4608v-.006a6.4548,6.4548,0,0,0-6.4489-6.4548Z" transform="translate(-1.039 -5.5702)"/><path class="cls-1" d="M99.0941,31.8728H91.7756a.8842.8842,0,0,1-.6816-.2954,1.0167,1.0167,0,0,1-.2989-.7355V21.7658a1.0186,1.0186,0,0,1,.2983-.7355.8863.8863,0,0,1,.6822-.2954H96.248a.8872.8872,0,0,1,.6811.2944,1.0343,1.0343,0,0,1,.2994.7365v4.296a.2817.2817,0,0,0,.2858.2774h11.3732a.2816.2816,0,0,0,.2857-.2774V22.0024c0-7.2765-3.5823-10.9667-10.6482-10.9667H89.4986c-7.0654,0-10.6477,3.69-10.6477,10.9667v10.182c0,7.2765,3.5823,10.9666,10.6477,10.9666h7.3185a.8847.8847,0,0,1,.6811.2944,1.0334,1.0334,0,0,1,.2994.7355V54.2055a1.0179,1.0179,0,0,1-.2989.7344.8838.8838,0,0,1-.6816.2955H91.7756a.8831.8831,0,0,1-.6816-.2955,1.0159,1.0159,0,0,1-.2989-.7344V48.2513a.2816.2816,0,0,0-.2858-.2774H79.1367a.2816.2816,0,0,0-.2858.2774v5.5592c0,7.2765,3.5823,10.9667,10.6477,10.9667h9.5955c7.0659,0,10.6483-3.69,10.6483-10.9667V42.84C109.7424,35.6743,106.1628,31.9842,99.0941,31.8728Z" transform="translate(-1.039 -5.5702)"/><path class="cls-1" d="M170.2513,11.0357H158.6107a.2835.2835,0,0,0-.2817.2511L154.4678,44.87a.2835.2835,0,0,1-.5619.0107L148.73,11.276a.2835.2835,0,0,0-.28-.24H137.8848a.2834.2834,0,0,0-.28.24l-5.1755,33.6048a.2835.2835,0,0,1-.5618-.0107l-3.8618-33.5833a.2835.2835,0,0,0-.2817-.2511H116.0833a.2835.2835,0,0,0-.28.3289l8.63,53.1745a.2838.2838,0,0,0,.28.2381H138.12a.2836.2836,0,0,0,.28-.2377l4.4873-27.406a.2835.2835,0,0,1,.56,0l4.4872,27.406a.2836.2836,0,0,0,.28.2377h13.4072a.2838.2838,0,0,0,.28-.2381l8.63-53.1745A.2835.2835,0,0,0,170.2513,11.0357Z" transform="translate(-1.039 -5.5702)"/><path class="cls-1" d="M199.1124,10.2228H188.297c-7.0654,0-10.6477,3.8019-10.6477,11.2985V64.4946a.2826.2826,0,0,0,.2826.2826h11.9487a.2826.2826,0,0,0,.2826-.2826V47.4138a.2825.2825,0,0,1,.2825-.2825h6.5185a.2825.2825,0,0,1,.2825.2825V64.4946a.2826.2826,0,0,0,.2826.2826h11.9488a.2825.2825,0,0,0,.2825-.2826V21.5213C209.7606,14.0247,206.1783,10.2228,199.1124,10.2228Zm-1.8657,9.9154V36.9367a.2825.2825,0,0,1-.2825.2826h-6.5185a.2825.2825,0,0,1-.2825-.2826V20.1382a1.0776,1.0776,0,0,1,.2994-.7577.8664.8664,0,0,1,.68-.3033h5.1231a.8743.8743,0,0,1,.6811.3033A1.0816,1.0816,0,0,1,197.2467,20.1382Z" transform="translate(-1.039 -5.5702)"/><path class="cls-1" d="M240.1762,11.0357H219.32a.2821.2821,0,0,0-.2822.2822V64.495a.2822.2822,0,0,0,.2822.2822h11.95a.2822.2822,0,0,0,.2822-.2822V47.2712a.2821.2821,0,0,1,.2821-.2821h8.3423c7.0653,0,10.6477-3.8018,10.6477-11.2985V22.3341C250.8239,14.8375,247.2415,11.0357,240.1762,11.0357Zm-1.8662,9.997V36.1583a1.0632,1.0632,0,0,1-.2989.7566.8721.8721,0,0,1-.6811.3044h-5.4961a.2822.2822,0,0,1-.2821-.2821V20.2538a.282.282,0,0,1,.2821-.2821H237.33a.8718.8718,0,0,1,.6811.3044A1.0767,1.0767,0,0,1,238.31,21.0327Z" transform="translate(-1.039 -5.5702)"/><path class="cls-1" d="M279.3288,11.0357H258.4727a.2821.2821,0,0,0-.2822.2822V64.495a.2822.2822,0,0,0,.2822.2822h11.95a.2822.2822,0,0,0,.2822-.2822V47.2712a.2821.2821,0,0,1,.2821-.2821h8.3423c7.0653,0,10.6477-3.8018,10.6477-11.2985V22.3341C289.9765,14.8375,286.3941,11.0357,279.3288,11.0357Zm-1.8662,9.997V36.1583a1.0632,1.0632,0,0,1-.2989.7566.8721.8721,0,0,1-.6811.3044h-5.4961a.2822.2822,0,0,1-.2821-.2821V20.2538a.282.282,0,0,1,.2821-.2821h5.4961a.8718.8718,0,0,1,.6811.3044A1.0767,1.0767,0,0,1,277.4626,21.0327Z" transform="translate(-1.039 -5.5702)"/><path class="cls-1" d="M318.3128,10.2228H307.4974c-7.0653,0-10.6477,3.8019-10.6477,11.2985V64.4927a.2845.2845,0,0,0,.2845.2845h11.9449a.2845.2845,0,0,0,.2845-.2845V47.4158a.2845.2845,0,0,1,.2845-.2845h6.5146a.2845.2845,0,0,1,.2845.2845V64.4927a.2845.2845,0,0,0,.2845.2845h11.9449a.2844.2844,0,0,0,.2844-.2845V21.5213C328.961,14.0247,325.3787,10.2228,318.3128,10.2228Zm-1.8656,9.9154V36.9348a.2845.2845,0,0,1-.2845.2845h-6.5146a.2845.2845,0,0,1-.2845-.2845V20.1382a1.0776,1.0776,0,0,1,.2994-.7577.8666.8666,0,0,1,.6806-.3033h5.1231a.8741.8741,0,0,1,.681.3033A1.0817,1.0817,0,0,1,316.4472,20.1382Z" transform="translate(-1.039 -5.5702)"/></svg>