<?xml version="1.0" encoding="utf-8"?>
<!-- Generator: Adobe Illustrator 25.3.1, SVG Export Plug-In . SVG Version: 6.00 Build 0)  -->
<svg version="1.1" id="Layer_1" xmlns="http://www.w3.org/2000/svg" xmlns:xlink="http://www.w3.org/1999/xlink" x="0px" y="0px"
	 viewBox="0 0 511.6 506.3" style="enable-background:new 0 0 511.6 506.3;" xml:space="preserve">
<style type="text/css">
	.st0{fill:#FAFAFA;}
</style>
<path class="st0" d="M234.7,62.4c1.9,16.9-4.7,25.3-21.2,28.1c-29.7,4.7-80.6,19.8-115.5,65.1c-49.4,64-44,125.5-36.4,156.4
	c3.6,12.4-2.8,25.4-14.8,30.1l0,0c-12.4,6.2-27.4,1.1-33.6-11.3c-0.8-1.6-1.4-3.3-1.8-5C-30.1,190.7,45.8,47.5,181,6.1
	c6.2-1.9,12.5-3.6,18.8-5c18.4-4.1,28.6,3.5,30.6,22.3L234.7,62.4z M465.4,342.4c17.3,7.6,28.9,2.6,34.6-15.4
	c42-135-33.4-278.6-168.4-320.6c-6.1-1.9-12.3-3.6-18.6-5c-13.3-3.8-27.2,4-31,17.3c-0.5,1.7-0.8,3.4-0.9,5.2l0,0
	c-1.9,12.8,6.2,24.9,18.8,27.9c30.5,8.9,86.5,35,117.3,109.9c21.8,52.8,9.4,104.3-1.4,132.5c-6,15.9-1.9,25.6,13.6,32.4L465.4,342.4
	z M71.6,386.4c-15.2,11.2-16.7,23.8-3.9,37.5c95.9,103.9,257.8,110.4,361.7,14.6c4.8-4.4,9.4-9,13.8-13.7
	c9.9-9.7,10.1-25.5,0.5-35.4c-1.2-1.3-2.6-2.4-4.1-3.4l0,0c-10.1-8-24.6-7.1-33.5,2.2c-23,22.1-73.5,57.6-153.8,47
	c-56.6-7.7-94.9-44.4-114.1-67.6c-10.8-13.2-21.2-14.4-34.9-4.4L71.6,386.4z M179.1,199.5c-28.3,0-51.2,22.9-51.2,51.2
	s22.9,51.2,51.2,51.2s51.2-22.9,51.2-51.2c0,0,0,0,0,0l0,0C230.3,222.5,207.4,199.6,179.1,199.5z M332.6,199.5
	c-28.3,0-51.2,22.9-51.2,51.1c0,28.3,22.9,51.2,51.1,51.2c28.3,0,51.2-22.9,51.2-51.1c0,0,0,0,0,0v0
	C383.7,222.5,360.8,199.6,332.6,199.5L332.6,199.5z"/>
</svg>
